<svg width="1200" height="628" viewBox="0 0 1200 628" fill="none" xmlns="http://www.w3.org/2000/svg">
<rect width="1200" height="628" fill="url(#paint0_linear_1_2)"/>
<path d="M143.605 376H137.98L148.222 346.909H154.727L164.983 376H159.358L151.588 352.875H151.361L143.605 376ZM143.79 364.594H159.131V368.827H143.79V364.594ZM194.546 354.906C194.414 353.666 193.855 352.7 192.87 352.009C191.895 351.317 190.626 350.972 189.063 350.972C187.965 350.972 187.022 351.137 186.237 351.469C185.451 351.8 184.849 352.25 184.433 352.818C184.016 353.386 183.803 354.035 183.793 354.764C183.793 355.37 183.931 355.896 184.205 356.341C184.489 356.786 184.873 357.165 185.356 357.477C185.839 357.78 186.374 358.036 186.961 358.244C187.548 358.453 188.14 358.628 188.737 358.77L191.464 359.452C192.562 359.707 193.618 360.053 194.631 360.489C195.654 360.924 196.568 361.473 197.373 362.136C198.187 362.799 198.831 363.599 199.305 364.537C199.778 365.474 200.015 366.573 200.015 367.832C200.015 369.537 199.579 371.038 198.708 372.335C197.837 373.623 196.577 374.632 194.93 375.361C193.291 376.08 191.308 376.44 188.978 376.44C186.715 376.44 184.75 376.09 183.083 375.389C181.426 374.688 180.129 373.666 179.191 372.321C178.263 370.976 177.761 369.338 177.685 367.406H182.87C182.946 368.42 183.258 369.262 183.808 369.935C184.357 370.607 185.072 371.109 185.952 371.44C186.843 371.772 187.837 371.938 188.935 371.938C190.081 371.938 191.085 371.767 191.947 371.426C192.818 371.076 193.5 370.593 193.992 369.977C194.485 369.352 194.736 368.623 194.745 367.79C194.736 367.032 194.513 366.407 194.077 365.915C193.642 365.413 193.031 364.996 192.245 364.665C191.469 364.324 190.559 364.021 189.518 363.756L186.208 362.903C183.812 362.288 181.918 361.355 180.526 360.105C179.144 358.846 178.452 357.174 178.452 355.091C178.452 353.377 178.916 351.876 179.844 350.588C180.782 349.3 182.056 348.301 183.665 347.591C185.275 346.871 187.098 346.511 189.134 346.511C191.199 346.511 193.007 346.871 194.56 347.591C196.123 348.301 197.349 349.291 198.239 350.56C199.129 351.819 199.589 353.268 199.617 354.906H194.546ZM204.486 376V354.182H209.628V376H204.486ZM207.071 351.085C206.257 351.085 205.556 350.815 204.969 350.276C204.382 349.726 204.088 349.068 204.088 348.301C204.088 347.525 204.382 346.866 204.969 346.327C205.556 345.777 206.257 345.503 207.071 345.503C207.895 345.503 208.596 345.777 209.173 346.327C209.76 346.866 210.054 347.525 210.054 348.301C210.054 349.068 209.76 349.726 209.173 350.276C208.596 350.815 207.895 351.085 207.071 351.085ZM214.915 376V354.182H219.83V357.889H220.086C220.54 356.639 221.293 355.664 222.344 354.963C223.396 354.253 224.65 353.898 226.109 353.898C227.586 353.898 228.831 354.258 229.844 354.977C230.867 355.687 231.587 356.658 232.004 357.889H232.231C232.714 356.677 233.528 355.711 234.674 354.991C235.829 354.262 237.198 353.898 238.779 353.898C240.787 353.898 242.425 354.532 243.694 355.801C244.963 357.07 245.597 358.921 245.597 361.355V376H240.441V362.151C240.441 360.796 240.081 359.807 239.362 359.182C238.642 358.547 237.761 358.23 236.719 358.23C235.479 358.23 234.508 358.618 233.808 359.395C233.116 360.162 232.771 361.161 232.771 362.392V376H227.728V361.938C227.728 360.811 227.387 359.911 226.705 359.239C226.033 358.566 225.152 358.23 224.063 358.23C223.325 358.23 222.652 358.42 222.046 358.798C221.44 359.168 220.957 359.693 220.597 360.375C220.237 361.047 220.058 361.833 220.058 362.733V376H214.915ZM250.814 384.182V354.182H255.871V357.79H256.169C256.434 357.259 256.808 356.696 257.291 356.099C257.774 355.493 258.428 354.977 259.251 354.551C260.075 354.116 261.126 353.898 262.405 353.898C264.09 353.898 265.61 354.329 266.964 355.19C268.328 356.043 269.408 357.307 270.203 358.983C271.008 360.65 271.411 362.695 271.411 365.119C271.411 367.515 271.018 369.551 270.232 371.227C269.446 372.903 268.375 374.182 267.021 375.062C265.667 375.943 264.133 376.384 262.419 376.384C261.169 376.384 260.132 376.175 259.308 375.759C258.484 375.342 257.821 374.84 257.32 374.253C256.827 373.656 256.444 373.093 256.169 372.562H255.956V384.182H250.814ZM255.857 365.091C255.857 366.502 256.055 367.738 256.453 368.798C256.86 369.859 257.443 370.687 258.2 371.284C258.967 371.871 259.895 372.165 260.984 372.165C262.121 372.165 263.072 371.862 263.839 371.256C264.607 370.64 265.184 369.802 265.572 368.741C265.97 367.671 266.169 366.455 266.169 365.091C266.169 363.737 265.975 362.534 265.587 361.483C265.198 360.432 264.621 359.608 263.854 359.011C263.087 358.415 262.13 358.116 260.984 358.116C259.886 358.116 258.953 358.405 258.186 358.983C257.419 359.561 256.837 360.37 256.439 361.412C256.051 362.454 255.857 363.68 255.857 365.091ZM280.956 346.909V376H275.814V346.909H280.956ZM295.903 376.426C293.715 376.426 291.826 375.972 290.235 375.062C288.654 374.144 287.437 372.847 286.585 371.17C285.732 369.485 285.306 367.501 285.306 365.219C285.306 362.974 285.732 361.005 286.585 359.31C287.446 357.605 288.649 356.279 290.192 355.332C291.736 354.376 293.549 353.898 295.633 353.898C296.978 353.898 298.246 354.116 299.44 354.551C300.642 354.977 301.703 355.64 302.621 356.54C303.549 357.439 304.279 358.585 304.809 359.977C305.339 361.36 305.604 363.008 305.604 364.92V366.497H287.721V363.031H300.675C300.666 362.046 300.453 361.17 300.036 360.403C299.62 359.627 299.037 359.016 298.289 358.571C297.55 358.126 296.689 357.903 295.704 357.903C294.653 357.903 293.729 358.159 292.934 358.67C292.138 359.172 291.518 359.835 291.073 360.659C290.638 361.473 290.415 362.368 290.406 363.344V366.369C290.406 367.638 290.638 368.727 291.102 369.636C291.566 370.536 292.214 371.227 293.048 371.71C293.881 372.184 294.856 372.42 295.974 372.42C296.722 372.42 297.399 372.316 298.005 372.108C298.611 371.89 299.137 371.573 299.582 371.156C300.027 370.74 300.363 370.223 300.59 369.608L305.391 370.148C305.088 371.417 304.511 372.525 303.658 373.472C302.816 374.409 301.736 375.138 300.42 375.659C299.103 376.17 297.598 376.426 295.903 376.426ZM323.839 376H318.214L328.456 346.909H334.962L345.217 376H339.592L331.822 352.875H331.595L323.839 376ZM324.024 364.594H339.365V368.827H324.024V364.594ZM348.822 384.182V354.182H353.879V357.79H354.177C354.442 357.259 354.816 356.696 355.299 356.099C355.782 355.493 356.435 354.977 357.259 354.551C358.083 354.116 359.134 353.898 360.413 353.898C362.098 353.898 363.618 354.329 364.972 355.19C366.336 356.043 367.415 357.307 368.211 358.983C369.016 360.65 369.418 362.695 369.418 365.119C369.418 367.515 369.025 369.551 368.239 371.227C367.453 372.903 366.383 374.182 365.029 375.062C363.675 375.943 362.141 376.384 360.427 376.384C359.177 376.384 358.14 376.175 357.316 375.759C356.492 375.342 355.829 374.84 355.327 374.253C354.835 373.656 354.451 373.093 354.177 372.562H353.964V384.182H348.822ZM353.864 365.091C353.864 366.502 354.063 367.738 354.461 368.798C354.868 369.859 355.451 370.687 356.208 371.284C356.975 371.871 357.903 372.165 358.992 372.165C360.129 372.165 361.08 371.862 361.847 371.256C362.614 370.64 363.192 369.802 363.58 368.741C363.978 367.671 364.177 366.455 364.177 365.091C364.177 363.737 363.983 362.534 363.594 361.483C363.206 360.432 362.629 359.608 361.862 359.011C361.094 358.415 360.138 358.116 358.992 358.116C357.894 358.116 356.961 358.405 356.194 358.983C355.427 359.561 354.844 360.37 354.447 361.412C354.058 362.454 353.864 363.68 353.864 365.091ZM373.822 384.182V354.182H378.879V357.79H379.177C379.442 357.259 379.816 356.696 380.299 356.099C380.782 355.493 381.435 354.977 382.259 354.551C383.083 354.116 384.134 353.898 385.413 353.898C387.098 353.898 388.618 354.329 389.972 355.19C391.336 356.043 392.415 357.307 393.211 358.983C394.016 360.65 394.418 362.695 394.418 365.119C394.418 367.515 394.025 369.551 393.239 371.227C392.453 372.903 391.383 374.182 390.029 375.062C388.675 375.943 387.141 376.384 385.427 376.384C384.177 376.384 383.14 376.175 382.316 375.759C381.492 375.342 380.829 374.84 380.327 374.253C379.835 373.656 379.451 373.093 379.177 372.562H378.964V384.182H373.822ZM378.864 365.091C378.864 366.502 379.063 367.738 379.461 368.798C379.868 369.859 380.451 370.687 381.208 371.284C381.975 371.871 382.903 372.165 383.992 372.165C385.129 372.165 386.08 371.862 386.847 371.256C387.614 370.64 388.192 369.802 388.58 368.741C388.978 367.671 389.177 366.455 389.177 365.091C389.177 363.737 388.983 362.534 388.594 361.483C388.206 360.432 387.629 359.608 386.862 359.011C386.094 358.415 385.138 358.116 383.992 358.116C382.894 358.116 381.961 358.405 381.194 358.983C380.427 359.561 379.844 360.37 379.447 361.412C379.058 362.454 378.864 363.68 378.864 365.091ZM419.638 354.182V358.159H407.096V354.182H419.638ZM410.192 348.955H415.335V369.438C415.335 370.129 415.439 370.659 415.647 371.028C415.865 371.388 416.149 371.634 416.499 371.767C416.85 371.9 417.238 371.966 417.664 371.966C417.986 371.966 418.28 371.942 418.545 371.895C418.819 371.848 419.028 371.805 419.17 371.767L420.036 375.787C419.762 375.882 419.369 375.986 418.857 376.099C418.355 376.213 417.74 376.279 417.011 376.298C415.723 376.336 414.563 376.142 413.531 375.716C412.498 375.28 411.679 374.608 411.073 373.699C410.477 372.79 410.183 371.653 410.192 370.29V348.955ZM433.222 376.426C431.091 376.426 429.244 375.957 427.682 375.02C426.119 374.082 424.907 372.771 424.045 371.085C423.193 369.4 422.767 367.43 422.767 365.176C422.767 362.922 423.193 360.948 424.045 359.253C424.907 357.558 426.119 356.241 427.682 355.304C429.244 354.366 431.091 353.898 433.222 353.898C435.352 353.898 437.199 354.366 438.761 355.304C440.324 356.241 441.531 357.558 442.384 359.253C443.245 360.948 443.676 362.922 443.676 365.176C443.676 367.43 443.245 369.4 442.384 371.085C441.531 372.771 440.324 374.082 438.761 375.02C437.199 375.957 435.352 376.426 433.222 376.426ZM433.25 372.307C434.405 372.307 435.371 371.99 436.148 371.355C436.924 370.711 437.502 369.849 437.881 368.77C438.269 367.69 438.463 366.488 438.463 365.162C438.463 363.827 438.269 362.619 437.881 361.54C437.502 360.451 436.924 359.584 436.148 358.94C435.371 358.296 434.405 357.974 433.25 357.974C432.066 357.974 431.081 358.296 430.295 358.94C429.519 359.584 428.937 360.451 428.548 361.54C428.17 362.619 427.98 363.827 427.98 365.162C427.98 366.488 428.17 367.69 428.548 368.77C428.937 369.849 429.519 370.711 430.295 371.355C431.081 371.99 432.066 372.307 433.25 372.307ZM458.19 346.909H464.638L473.275 367.989H473.616L482.252 346.909H488.701V376H483.644V356.014H483.374L475.335 375.915H471.556L463.516 355.972H463.246V376H458.19V346.909ZM500.491 376.44C499.108 376.44 497.863 376.194 496.755 375.702C495.656 375.2 494.785 374.461 494.141 373.486C493.507 372.51 493.19 371.308 493.19 369.878C493.19 368.647 493.417 367.629 493.871 366.824C494.326 366.019 494.946 365.375 495.732 364.892C496.518 364.409 497.404 364.045 498.388 363.798C499.383 363.543 500.41 363.358 501.471 363.244C502.749 363.112 503.786 362.993 504.582 362.889C505.377 362.776 505.955 362.605 506.315 362.378C506.684 362.141 506.869 361.777 506.869 361.284V361.199C506.869 360.129 506.551 359.3 505.917 358.713C505.282 358.126 504.369 357.832 503.175 357.832C501.916 357.832 500.917 358.107 500.178 358.656C499.449 359.205 498.957 359.854 498.701 360.602L493.9 359.92C494.279 358.595 494.904 357.487 495.775 356.597C496.646 355.697 497.711 355.025 498.971 354.58C500.23 354.125 501.622 353.898 503.147 353.898C504.198 353.898 505.245 354.021 506.286 354.267C507.328 354.513 508.28 354.92 509.141 355.489C510.003 356.047 510.694 356.81 511.215 357.776C511.746 358.741 512.011 359.949 512.011 361.398V376H507.067V373.003H506.897C506.585 373.609 506.144 374.177 505.576 374.707C505.017 375.228 504.312 375.65 503.46 375.972C502.617 376.284 501.627 376.44 500.491 376.44ZM501.826 372.662C502.858 372.662 503.753 372.458 504.511 372.051C505.268 371.634 505.851 371.085 506.258 370.403C506.674 369.722 506.883 368.978 506.883 368.173V365.602C506.722 365.735 506.447 365.858 506.059 365.972C505.68 366.085 505.254 366.185 504.781 366.27C504.307 366.355 503.838 366.431 503.374 366.497C502.91 366.563 502.508 366.62 502.167 366.668C501.4 366.772 500.713 366.942 500.107 367.179C499.501 367.416 499.023 367.747 498.673 368.173C498.322 368.59 498.147 369.13 498.147 369.793C498.147 370.74 498.493 371.455 499.184 371.938C499.875 372.42 500.756 372.662 501.826 372.662ZM522.323 363.216V376H517.181V354.182H522.096V357.889H522.352C522.853 356.668 523.654 355.697 524.752 354.977C525.86 354.258 527.228 353.898 528.857 353.898C530.363 353.898 531.674 354.22 532.792 354.864C533.919 355.508 534.79 356.44 535.406 357.662C536.031 358.884 536.338 360.366 536.329 362.108V376H531.187V362.903C531.187 361.445 530.808 360.304 530.05 359.48C529.302 358.656 528.265 358.244 526.94 358.244C526.04 358.244 525.24 358.443 524.539 358.841C523.848 359.229 523.303 359.793 522.906 360.531C522.517 361.27 522.323 362.165 522.323 363.216ZM547.835 376.44C546.452 376.44 545.207 376.194 544.099 375.702C543 375.2 542.129 374.461 541.485 373.486C540.851 372.51 540.533 371.308 540.533 369.878C540.533 368.647 540.761 367.629 541.215 366.824C541.67 366.019 542.29 365.375 543.076 364.892C543.862 364.409 544.747 364.045 545.732 363.798C546.727 363.543 547.754 363.358 548.815 363.244C550.093 363.112 551.13 362.993 551.925 362.889C552.721 362.776 553.299 362.605 553.658 362.378C554.028 362.141 554.212 361.777 554.212 361.284V361.199C554.212 360.129 553.895 359.3 553.261 358.713C552.626 358.126 551.712 357.832 550.519 357.832C549.26 357.832 548.261 358.107 547.522 358.656C546.793 359.205 546.3 359.854 546.045 360.602L541.244 359.92C541.622 358.595 542.247 357.487 543.119 356.597C543.99 355.697 545.055 355.025 546.315 354.58C547.574 354.125 548.966 353.898 550.491 353.898C551.542 353.898 552.588 354.021 553.63 354.267C554.672 354.513 555.623 354.92 556.485 355.489C557.347 356.047 558.038 356.81 558.559 357.776C559.089 358.741 559.354 359.949 559.354 361.398V376H554.411V373.003H554.241C553.928 373.609 553.488 374.177 552.92 374.707C552.361 375.228 551.656 375.65 550.803 375.972C549.96 376.284 548.971 376.44 547.835 376.44ZM549.17 372.662C550.202 372.662 551.097 372.458 551.854 372.051C552.612 371.634 553.194 371.085 553.602 370.403C554.018 369.722 554.227 368.978 554.227 368.173V365.602C554.066 365.735 553.791 365.858 553.403 365.972C553.024 366.085 552.598 366.185 552.124 366.27C551.651 366.355 551.182 366.431 550.718 366.497C550.254 366.563 549.852 366.62 549.511 366.668C548.744 366.772 548.057 366.942 547.451 367.179C546.845 367.416 546.367 367.747 546.016 368.173C545.666 368.59 545.491 369.13 545.491 369.793C545.491 370.74 545.836 371.455 546.528 371.938C547.219 372.42 548.1 372.662 549.17 372.662ZM574.013 384.636C572.167 384.636 570.581 384.385 569.255 383.884C567.929 383.391 566.864 382.728 566.059 381.895C565.254 381.062 564.695 380.138 564.383 379.125L569.013 378.003C569.222 378.429 569.525 378.85 569.923 379.267C570.32 379.693 570.855 380.044 571.528 380.318C572.21 380.602 573.067 380.744 574.099 380.744C575.557 380.744 576.764 380.389 577.721 379.679C578.677 378.978 579.156 377.823 579.156 376.213V372.08H578.9C578.635 372.61 578.246 373.154 577.735 373.713C577.233 374.272 576.566 374.741 575.732 375.119C574.908 375.498 573.871 375.688 572.621 375.688C570.945 375.688 569.425 375.295 568.062 374.509C566.708 373.713 565.628 372.529 564.823 370.957C564.028 369.376 563.63 367.397 563.63 365.02C563.63 362.624 564.028 360.602 564.823 358.955C565.628 357.297 566.712 356.043 568.076 355.19C569.44 354.329 570.96 353.898 572.636 353.898C573.914 353.898 574.965 354.116 575.789 354.551C576.622 354.977 577.285 355.493 577.778 356.099C578.27 356.696 578.644 357.259 578.9 357.79H579.184V354.182H584.255V376.355C584.255 378.221 583.81 379.764 582.92 380.986C582.03 382.207 580.813 383.121 579.269 383.727C577.726 384.333 575.974 384.636 574.013 384.636ZM574.056 371.653C575.145 371.653 576.073 371.388 576.84 370.858C577.607 370.328 578.19 369.565 578.587 368.571C578.985 367.577 579.184 366.384 579.184 364.991C579.184 363.618 578.985 362.416 578.587 361.384C578.199 360.351 577.621 359.551 576.854 358.983C576.097 358.405 575.164 358.116 574.056 358.116C572.91 358.116 571.954 358.415 571.187 359.011C570.42 359.608 569.842 360.427 569.454 361.469C569.066 362.501 568.871 363.675 568.871 364.991C568.871 366.327 569.066 367.496 569.454 368.5C569.852 369.494 570.434 370.271 571.201 370.83C571.978 371.379 572.929 371.653 574.056 371.653ZM599.184 376.426C596.996 376.426 595.107 375.972 593.516 375.062C591.935 374.144 590.718 372.847 589.866 371.17C589.013 369.485 588.587 367.501 588.587 365.219C588.587 362.974 589.013 361.005 589.866 359.31C590.728 357.605 591.93 356.279 593.474 355.332C595.017 354.376 596.831 353.898 598.914 353.898C600.259 353.898 601.528 354.116 602.721 354.551C603.924 354.977 604.984 355.64 605.903 356.54C606.831 357.439 607.56 358.585 608.09 359.977C608.621 361.36 608.886 363.008 608.886 364.92V366.497H591.002V363.031H603.957C603.947 362.046 603.734 361.17 603.317 360.403C602.901 359.627 602.318 359.016 601.57 358.571C600.832 358.126 599.97 357.903 598.985 357.903C597.934 357.903 597.011 358.159 596.215 358.67C595.42 359.172 594.799 359.835 594.354 360.659C593.919 361.473 593.696 362.368 593.687 363.344V366.369C593.687 367.638 593.919 368.727 594.383 369.636C594.847 370.536 595.496 371.227 596.329 371.71C597.162 372.184 598.138 372.42 599.255 372.42C600.003 372.42 600.68 372.316 601.286 372.108C601.892 371.89 602.418 371.573 602.863 371.156C603.308 370.74 603.644 370.223 603.871 369.608L608.673 370.148C608.37 371.417 607.792 372.525 606.94 373.472C606.097 374.409 605.017 375.138 603.701 375.659C602.385 376.17 600.879 376.426 599.184 376.426ZM622.107 351.327V346.909H645.317V351.327H636.325V376H631.098V351.327H622.107ZM649.564 376V354.182H654.706V376H649.564ZM652.149 351.085C651.335 351.085 650.634 350.815 650.047 350.276C649.46 349.726 649.166 349.068 649.166 348.301C649.166 347.525 649.46 346.866 650.047 346.327C650.634 345.777 651.335 345.503 652.149 345.503C652.973 345.503 653.674 345.777 654.251 346.327C654.839 346.866 655.132 347.525 655.132 348.301C655.132 349.068 654.839 349.726 654.251 350.276C653.674 350.815 652.973 351.085 652.149 351.085ZM659.994 376V354.182H664.908V357.889H665.164C665.619 356.639 666.371 355.664 667.423 354.963C668.474 354.253 669.728 353.898 671.187 353.898C672.664 353.898 673.909 354.258 674.923 354.977C675.945 355.687 676.665 356.658 677.082 357.889H677.309C677.792 356.677 678.606 355.711 679.752 354.991C680.907 354.262 682.276 353.898 683.857 353.898C685.865 353.898 687.503 354.532 688.772 355.801C690.041 357.07 690.675 358.921 690.675 361.355V376H685.519V362.151C685.519 360.796 685.159 359.807 684.44 359.182C683.72 358.547 682.839 358.23 681.798 358.23C680.557 358.23 679.586 358.618 678.886 359.395C678.194 360.162 677.849 361.161 677.849 362.392V376H672.806V361.938C672.806 360.811 672.465 359.911 671.783 359.239C671.111 358.566 670.23 358.23 669.141 358.23C668.403 358.23 667.73 358.42 667.124 358.798C666.518 359.168 666.035 359.693 665.675 360.375C665.316 361.047 665.136 361.833 665.136 362.733V376H659.994ZM705.551 376.426C703.364 376.426 701.474 375.972 699.884 375.062C698.302 374.144 697.085 372.847 696.233 371.17C695.381 369.485 694.955 367.501 694.955 365.219C694.955 362.974 695.381 361.005 696.233 359.31C697.095 357.605 698.297 356.279 699.841 355.332C701.384 354.376 703.198 353.898 705.281 353.898C706.626 353.898 707.895 354.116 709.088 354.551C710.291 354.977 711.351 355.64 712.27 356.54C713.198 357.439 713.927 358.585 714.457 359.977C714.988 361.36 715.253 363.008 715.253 364.92V366.497H697.369V363.031H710.324C710.314 362.046 710.101 361.17 709.685 360.403C709.268 359.627 708.686 359.016 707.938 358.571C707.199 358.126 706.337 357.903 705.352 357.903C704.301 357.903 703.378 358.159 702.582 358.67C701.787 359.172 701.167 359.835 700.722 360.659C700.286 361.473 700.063 362.368 700.054 363.344V366.369C700.054 367.638 700.286 368.727 700.75 369.636C701.214 370.536 701.863 371.227 702.696 371.71C703.529 372.184 704.505 372.42 705.622 372.42C706.37 372.42 707.047 372.316 707.653 372.108C708.259 371.89 708.785 371.573 709.23 371.156C709.675 370.74 710.011 370.223 710.239 369.608L715.04 370.148C714.737 371.417 714.159 372.525 713.307 373.472C712.464 374.409 711.384 375.138 710.068 375.659C708.752 376.17 707.246 376.426 705.551 376.426ZM725.64 372.023L725.455 373.585C725.323 374.778 725.086 375.991 724.745 377.222C724.414 378.462 724.063 379.603 723.694 380.645C723.325 381.687 723.026 382.506 722.799 383.102H719.333C719.466 382.525 719.646 381.739 719.873 380.744C720.11 379.75 720.337 378.633 720.555 377.392C720.772 376.152 720.919 374.892 720.995 373.614L721.094 372.023H725.64ZM740.651 346.909H747.099L755.736 367.989H756.077L764.713 346.909H771.162V376H766.105V356.014H765.835L757.795 375.915H754.017L745.977 355.972H745.707V376H740.651V346.909ZM786.19 376.426C784.06 376.426 782.213 375.957 780.651 375.02C779.088 374.082 777.876 372.771 777.014 371.085C776.162 369.4 775.736 367.43 775.736 365.176C775.736 362.922 776.162 360.948 777.014 359.253C777.876 357.558 779.088 356.241 780.651 355.304C782.213 354.366 784.06 353.898 786.19 353.898C788.321 353.898 790.168 354.366 791.73 355.304C793.293 356.241 794.5 357.558 795.352 359.253C796.214 360.948 796.645 362.922 796.645 365.176C796.645 367.43 796.214 369.4 795.352 371.085C794.5 372.771 793.293 374.082 791.73 375.02C790.168 375.957 788.321 376.426 786.19 376.426ZM786.219 372.307C787.374 372.307 788.34 371.99 789.116 371.355C789.893 370.711 790.471 369.849 790.849 368.77C791.238 367.69 791.432 366.488 791.432 365.162C791.432 363.827 791.238 362.619 790.849 361.54C790.471 360.451 789.893 359.584 789.116 358.94C788.34 358.296 787.374 357.974 786.219 357.974C785.035 357.974 784.05 358.296 783.264 358.94C782.488 359.584 781.905 360.451 781.517 361.54C781.138 362.619 780.949 363.827 780.949 365.162C780.949 366.488 781.138 367.69 781.517 368.77C781.905 369.849 782.488 370.711 783.264 371.355C784.05 371.99 785.035 372.307 786.219 372.307ZM806.151 363.216V376H801.009V354.182H805.924V357.889H806.18C806.682 356.668 807.482 355.697 808.58 354.977C809.688 354.258 811.057 353.898 812.685 353.898C814.191 353.898 815.503 354.22 816.62 354.864C817.747 355.508 818.618 356.44 819.234 357.662C819.859 358.884 820.166 360.366 820.157 362.108V376H815.015V362.903C815.015 361.445 814.636 360.304 813.879 359.48C813.13 358.656 812.094 358.244 810.768 358.244C809.868 358.244 809.068 358.443 808.367 358.841C807.676 359.229 807.131 359.793 806.734 360.531C806.345 361.27 806.151 362.165 806.151 363.216ZM835.043 376.426C832.856 376.426 830.967 375.972 829.376 375.062C827.794 374.144 826.577 372.847 825.725 371.17C824.873 369.485 824.447 367.501 824.447 365.219C824.447 362.974 824.873 361.005 825.725 359.31C826.587 357.605 827.79 356.279 829.333 355.332C830.877 354.376 832.69 353.898 834.773 353.898C836.118 353.898 837.387 354.116 838.58 354.551C839.783 354.977 840.844 355.64 841.762 356.54C842.69 357.439 843.419 358.585 843.95 359.977C844.48 361.36 844.745 363.008 844.745 364.92V366.497H826.862V363.031H839.816C839.807 362.046 839.594 361.17 839.177 360.403C838.76 359.627 838.178 359.016 837.43 358.571C836.691 358.126 835.829 357.903 834.844 357.903C833.793 357.903 832.87 358.159 832.075 358.67C831.279 359.172 830.659 359.835 830.214 360.659C829.778 361.473 829.556 362.368 829.546 363.344V366.369C829.546 367.638 829.778 368.727 830.242 369.636C830.706 370.536 831.355 371.227 832.188 371.71C833.022 372.184 833.997 372.42 835.114 372.42C835.862 372.42 836.54 372.316 837.146 372.108C837.752 371.89 838.277 371.573 838.722 371.156C839.167 370.74 839.504 370.223 839.731 369.608L844.532 370.148C844.229 371.417 843.651 372.525 842.799 373.472C841.956 374.409 840.877 375.138 839.56 375.659C838.244 376.17 836.738 376.426 835.043 376.426ZM851.666 384.182C850.965 384.182 850.317 384.125 849.72 384.011C849.133 383.907 848.664 383.784 848.314 383.642L849.507 379.636C850.255 379.854 850.923 379.958 851.51 379.949C852.097 379.939 852.613 379.755 853.058 379.395C853.513 379.045 853.896 378.457 854.209 377.634L854.649 376.455L846.737 354.182H852.192L857.22 370.659H857.447L862.49 354.182H867.959L859.223 378.642C858.816 379.797 858.276 380.787 857.604 381.611C856.931 382.444 856.107 383.079 855.132 383.514C854.166 383.959 853.011 384.182 851.666 384.182ZM887.717 376.44C886.335 376.44 885.089 376.194 883.982 375.702C882.883 375.2 882.012 374.461 881.368 373.486C880.733 372.51 880.416 371.308 880.416 369.878C880.416 368.647 880.643 367.629 881.098 366.824C881.553 366.019 882.173 365.375 882.959 364.892C883.745 364.409 884.63 364.045 885.615 363.798C886.609 363.543 887.637 363.358 888.697 363.244C889.976 363.112 891.013 362.993 891.808 362.889C892.604 362.776 893.181 362.605 893.541 362.378C893.911 362.141 894.095 361.777 894.095 361.284V361.199C894.095 360.129 893.778 359.3 893.143 358.713C892.509 358.126 891.595 357.832 890.402 357.832C889.143 357.832 888.143 358.107 887.405 358.656C886.676 359.205 886.183 359.854 885.928 360.602L881.126 359.92C881.505 358.595 882.13 357.487 883.001 356.597C883.873 355.697 884.938 355.025 886.197 354.58C887.457 354.125 888.849 353.898 890.374 353.898C891.425 353.898 892.471 354.021 893.513 354.267C894.554 354.513 895.506 354.92 896.368 355.489C897.23 356.047 897.921 356.81 898.442 357.776C898.972 358.741 899.237 359.949 899.237 361.398V376H894.294V373.003H894.124C893.811 373.609 893.371 374.177 892.803 374.707C892.244 375.228 891.538 375.65 890.686 375.972C889.843 376.284 888.854 376.44 887.717 376.44ZM889.053 372.662C890.085 372.662 890.98 372.458 891.737 372.051C892.495 371.634 893.077 371.085 893.484 370.403C893.901 369.722 894.109 368.978 894.109 368.173V365.602C893.948 365.735 893.674 365.858 893.286 365.972C892.907 366.085 892.481 366.185 892.007 366.27C891.534 366.355 891.065 366.431 890.601 366.497C890.137 366.563 889.734 366.62 889.393 366.668C888.626 366.772 887.94 366.942 887.334 367.179C886.728 367.416 886.25 367.747 885.899 368.173C885.549 368.59 885.374 369.13 885.374 369.793C885.374 370.74 885.719 371.455 886.411 371.938C887.102 372.42 887.982 372.662 889.053 372.662ZM909.55 363.216V376H904.408V354.182H909.322V357.889H909.578C910.08 356.668 910.88 355.697 911.979 354.977C913.087 354.258 914.455 353.898 916.084 353.898C917.589 353.898 918.901 354.22 920.018 354.864C921.145 355.508 922.017 356.44 922.632 357.662C923.257 358.884 923.565 360.366 923.555 362.108V376H918.413V362.903C918.413 361.445 918.035 360.304 917.277 359.48C916.529 358.656 915.492 358.244 914.166 358.244C913.267 358.244 912.466 358.443 911.766 358.841C911.074 359.229 910.53 359.793 910.132 360.531C909.744 361.27 909.55 362.165 909.55 363.216ZM936.879 376.384C935.165 376.384 933.631 375.943 932.277 375.062C930.923 374.182 929.853 372.903 929.067 371.227C928.281 369.551 927.888 367.515 927.888 365.119C927.888 362.695 928.286 360.65 929.081 358.983C929.886 357.307 930.97 356.043 932.334 355.19C933.697 354.329 935.217 353.898 936.893 353.898C938.172 353.898 939.223 354.116 940.047 354.551C940.871 354.977 941.524 355.493 942.007 356.099C942.49 356.696 942.864 357.259 943.129 357.79H943.342V346.909H948.499V376H943.442V372.562H943.129C942.864 373.093 942.481 373.656 941.979 374.253C941.477 374.84 940.814 375.342 939.99 375.759C939.166 376.175 938.129 376.384 936.879 376.384ZM938.314 372.165C939.403 372.165 940.331 371.871 941.098 371.284C941.865 370.687 942.447 369.859 942.845 368.798C943.243 367.738 943.442 366.502 943.442 365.091C943.442 363.68 943.243 362.454 942.845 361.412C942.457 360.37 941.879 359.561 941.112 358.983C940.355 358.405 939.422 358.116 938.314 358.116C937.168 358.116 936.212 358.415 935.445 359.011C934.678 359.608 934.1 360.432 933.712 361.483C933.323 362.534 933.129 363.737 933.129 365.091C933.129 366.455 933.323 367.671 933.712 368.741C934.109 369.802 934.692 370.64 935.459 371.256C936.235 371.862 937.187 372.165 938.314 372.165ZM970.249 376L962.039 346.909H967.707L972.948 368.287H973.218L978.815 346.909H983.971L989.582 368.301H989.837L995.079 346.909H1000.75L992.536 376H987.337L981.513 355.588H981.286L975.448 376H970.249ZM1011.46 376.426C1009.33 376.426 1007.49 375.957 1005.92 375.02C1004.36 374.082 1003.15 372.771 1002.29 371.085C1001.44 369.4 1001.01 367.43 1001.01 365.176C1001.01 362.922 1001.44 360.948 1002.29 359.253C1003.15 357.558 1004.36 356.241 1005.92 355.304C1007.49 354.366 1009.33 353.898 1011.46 353.898C1013.59 353.898 1015.44 354.366 1017 355.304C1018.57 356.241 1019.77 357.558 1020.63 359.253C1021.49 360.948 1021.92 362.922 1021.92 365.176C1021.92 367.43 1021.49 369.4 1020.63 371.085C1019.77 372.771 1018.57 374.082 1017 375.02C1015.44 375.957 1013.59 376.426 1011.46 376.426ZM1011.49 372.307C1012.65 372.307 1013.61 371.99 1014.39 371.355C1015.17 370.711 1015.74 369.849 1016.12 368.77C1016.51 367.69 1016.71 366.488 1016.71 365.162C1016.71 363.827 1016.51 362.619 1016.12 361.54C1015.74 360.451 1015.17 359.584 1014.39 358.94C1013.61 358.296 1012.65 357.974 1011.49 357.974C1010.31 357.974 1009.32 358.296 1008.54 358.94C1007.76 359.584 1007.18 360.451 1006.79 361.54C1006.41 362.619 1006.22 363.827 1006.22 365.162C1006.22 366.488 1006.41 367.69 1006.79 368.77C1007.18 369.849 1007.76 370.711 1008.54 371.355C1009.32 371.99 1010.31 372.307 1011.49 372.307ZM1026.28 376V354.182H1031.27V357.818H1031.5C1031.89 356.559 1032.58 355.588 1033.54 354.906C1034.52 354.215 1035.63 353.869 1036.88 353.869C1037.16 353.869 1037.48 353.884 1037.83 353.912C1038.19 353.931 1038.49 353.964 1038.73 354.011V358.741C1038.51 358.666 1038.16 358.599 1037.69 358.543C1037.22 358.476 1036.78 358.443 1036.34 358.443C1035.4 358.443 1034.56 358.647 1033.81 359.054C1033.07 359.452 1032.49 360.006 1032.06 360.716C1031.64 361.426 1031.42 362.245 1031.42 363.173V376H1026.28ZM1046.83 369.153L1046.82 362.946H1047.64L1055.48 354.182H1061.49L1051.84 364.92H1050.78L1046.83 369.153ZM1042.14 376V346.909H1047.28V376H1042.14ZM1055.84 376L1048.73 366.071L1052.2 362.449L1061.99 376H1055.84Z" fill="#374151"/>
<path d="M450.5 275.239V263.818H499.676V275.239H482.034V322H468.17V275.239H450.5ZM520.585 322.824C516.002 322.824 512.063 321.886 508.767 320.011C505.491 318.117 502.962 315.485 501.182 312.114C499.42 308.723 498.54 304.794 498.54 300.324C498.54 295.835 499.42 291.905 501.182 288.534C502.962 285.144 505.491 282.511 508.767 280.636C512.063 278.742 516.002 277.795 520.585 277.795C525.169 277.795 529.098 278.742 532.375 280.636C535.67 282.511 538.199 285.144 539.96 288.534C541.741 291.905 542.631 295.835 542.631 300.324C542.631 304.794 541.741 308.723 539.96 312.114C538.199 315.485 535.67 318.117 532.375 320.011C529.098 321.886 525.169 322.824 520.585 322.824ZM520.67 312.341C522.337 312.341 523.748 311.83 524.903 310.807C526.059 309.784 526.939 308.364 527.545 306.545C528.17 304.727 528.483 302.625 528.483 300.239C528.483 297.814 528.17 295.693 527.545 293.875C526.939 292.057 526.059 290.636 524.903 289.614C523.748 288.591 522.337 288.08 520.67 288.08C518.947 288.08 517.489 288.591 516.295 289.614C515.121 290.636 514.222 292.057 513.597 293.875C512.991 295.693 512.688 297.814 512.688 300.239C512.688 302.625 512.991 304.727 513.597 306.545C514.222 308.364 515.121 309.784 516.295 310.807C517.489 311.83 518.947 312.341 520.67 312.341ZM574.378 278.364V288.591H546.849V278.364H574.378ZM552.616 267.909H566.509V308.278C566.509 309.131 566.641 309.822 566.906 310.352C567.19 310.864 567.598 311.233 568.128 311.46C568.658 311.669 569.293 311.773 570.031 311.773C570.562 311.773 571.12 311.725 571.707 311.631C572.313 311.517 572.768 311.422 573.071 311.347L575.173 321.375C574.51 321.564 573.573 321.801 572.361 322.085C571.168 322.369 569.738 322.549 568.071 322.625C564.813 322.777 562.02 322.398 559.69 321.489C557.38 320.561 555.609 319.121 554.378 317.17C553.166 315.22 552.579 312.767 552.616 309.812V267.909ZM601.366 322.824C596.783 322.824 592.844 321.886 589.548 320.011C586.272 318.117 583.743 315.485 581.963 312.114C580.202 308.723 579.321 304.794 579.321 300.324C579.321 295.835 580.202 291.905 581.963 288.534C583.743 285.144 586.272 282.511 589.548 280.636C592.844 278.742 596.783 277.795 601.366 277.795C605.95 277.795 609.88 278.742 613.156 280.636C616.452 282.511 618.98 285.144 620.741 288.534C622.522 291.905 623.412 295.835 623.412 300.324C623.412 304.794 622.522 308.723 620.741 312.114C618.98 315.485 616.452 318.117 613.156 320.011C609.88 321.886 605.95 322.824 601.366 322.824ZM601.452 312.341C603.118 312.341 604.529 311.83 605.685 310.807C606.84 309.784 607.721 308.364 608.327 306.545C608.952 304.727 609.264 302.625 609.264 300.239C609.264 297.814 608.952 295.693 608.327 293.875C607.721 292.057 606.84 290.636 605.685 289.614C604.529 288.591 603.118 288.08 601.452 288.08C599.728 288.08 598.27 288.591 597.077 289.614C595.902 290.636 595.003 292.057 594.378 293.875C593.772 295.693 593.469 297.814 593.469 300.239C593.469 302.625 593.772 304.727 594.378 306.545C595.003 308.364 595.902 309.784 597.077 310.807C598.27 311.83 599.728 312.341 601.452 312.341ZM655.159 278.364V288.591H627.631V278.364H655.159ZM633.398 267.909H647.29V308.278C647.29 309.131 647.422 309.822 647.688 310.352C647.972 310.864 648.379 311.233 648.909 311.46C649.439 311.669 650.074 311.773 650.812 311.773C651.343 311.773 651.902 311.725 652.489 311.631C653.095 311.517 653.549 311.422 653.852 311.347L655.955 321.375C655.292 321.564 654.354 321.801 653.142 322.085C651.949 322.369 650.519 322.549 648.852 322.625C645.595 322.777 642.801 322.398 640.472 321.489C638.161 320.561 636.39 319.121 635.159 317.17C633.947 315.22 633.36 312.767 633.398 309.812V267.909ZM662.247 322V278.364H676.139V322H662.247ZM669.207 273.278C667.257 273.278 665.58 272.634 664.179 271.347C662.777 270.04 662.077 268.468 662.077 266.631C662.077 264.812 662.777 263.259 664.179 261.972C665.58 260.665 667.257 260.011 669.207 260.011C671.177 260.011 672.853 260.665 674.236 261.972C675.637 263.259 676.338 264.812 676.338 266.631C676.338 268.468 675.637 270.04 674.236 271.347C672.853 272.634 671.177 273.278 669.207 273.278ZM684.982 322V278.364H698.192V286.375H698.675C699.584 283.723 701.118 281.631 703.277 280.097C705.436 278.562 708.012 277.795 711.004 277.795C714.035 277.795 716.629 278.572 718.788 280.125C720.947 281.678 722.321 283.761 722.908 286.375H723.362C724.177 283.78 725.768 281.706 728.135 280.153C730.502 278.581 733.296 277.795 736.516 277.795C740.644 277.795 743.997 279.121 746.572 281.773C749.148 284.405 750.436 288.023 750.436 292.625V322H736.544V295.807C736.544 293.629 735.985 291.972 734.868 290.835C733.75 289.68 732.302 289.102 730.521 289.102C728.608 289.102 727.103 289.727 726.004 290.977C724.925 292.208 724.385 293.866 724.385 295.949V322H711.033V295.665C711.033 293.638 710.483 292.038 709.385 290.864C708.286 289.689 706.838 289.102 705.038 289.102C703.826 289.102 702.756 289.396 701.828 289.983C700.9 290.551 700.171 291.366 699.641 292.426C699.129 293.487 698.874 294.737 698.874 296.176V322H684.982ZM779.442 322.824C774.877 322.824 770.938 321.924 767.624 320.125C764.328 318.307 761.79 315.722 760.01 312.369C758.249 308.998 757.368 304.992 757.368 300.352C757.368 295.845 758.258 291.905 760.038 288.534C761.819 285.144 764.328 282.511 767.567 280.636C770.805 278.742 774.622 277.795 779.016 277.795C782.122 277.795 784.963 278.278 787.538 279.244C790.114 280.21 792.339 281.64 794.214 283.534C796.089 285.428 797.548 287.767 798.589 290.551C799.631 293.316 800.152 296.489 800.152 300.068V303.534H762.226V295.466H787.226C787.207 293.989 786.857 292.672 786.175 291.517C785.493 290.362 784.555 289.462 783.362 288.818C782.188 288.155 780.834 287.824 779.3 287.824C777.747 287.824 776.355 288.174 775.124 288.875C773.893 289.557 772.917 290.494 772.197 291.688C771.478 292.862 771.099 294.197 771.061 295.693V303.903C771.061 305.684 771.411 307.246 772.112 308.591C772.813 309.917 773.807 310.949 775.095 311.688C776.383 312.426 777.917 312.795 779.697 312.795C780.929 312.795 782.046 312.625 783.05 312.284C784.054 311.943 784.915 311.441 785.635 310.778C786.355 310.116 786.894 309.301 787.254 308.335L800.01 308.705C799.48 311.564 798.315 314.055 796.516 316.176C794.735 318.278 792.396 319.917 789.499 321.091C786.601 322.246 783.249 322.824 779.442 322.824ZM807.247 322V278.364H820.741V286.318H821.196C821.991 283.439 823.289 281.299 825.088 279.898C826.887 278.477 828.98 277.767 831.366 277.767C832.01 277.767 832.673 277.814 833.355 277.909C834.037 277.985 834.671 278.108 835.259 278.278V290.352C834.596 290.125 833.724 289.945 832.645 289.812C831.584 289.68 830.637 289.614 829.804 289.614C828.156 289.614 826.67 289.983 825.344 290.722C824.037 291.441 823.005 292.455 822.247 293.761C821.509 295.049 821.139 296.564 821.139 298.307V322H807.247Z" fill="#374151"/>
<g clip-path="url(#clip0_1_2)">
<path d="M392.875 289.292L402.5 298.917L428.167 273.25" stroke="white" stroke-width="10" stroke-linecap="round" stroke-linejoin="round"/>
<path d="M428.167 292.5V311.75C428.167 313.452 427.491 315.084 426.287 316.287C425.084 317.491 423.452 318.167 421.75 318.167H383.25C381.548 318.167 379.916 317.491 378.713 316.287C377.509 315.084 376.833 313.452 376.833 311.75V273.25C376.833 271.548 377.509 269.916 378.713 268.713C379.916 267.509 381.548 266.833 383.25 266.833H412.125" stroke="#F5F5F5" stroke-width="10" stroke-linecap="round" stroke-linejoin="round"/>
</g>
<defs>
<linearGradient id="paint0_linear_1_2" x1="8.9407e-06" y1="314" x2="1200" y2="314" gradientUnits="userSpaceOnUse">
<stop stop-color="#63A4FF"/>
<stop offset="1" stop-color="#83EAF1"/>
</linearGradient>
<clipPath id="clip0_1_2">
<rect width="77" height="77" fill="white" transform="translate(364 254)"/>
</clipPath>
</defs>
</svg>
